
General
Complete name                    : shooting.stars.s08e01.hdtv.xvid-angelic.avi
Format                           : AVI
Format/Info                      : Audio Video Interleave
File size                        : 232 MiB
Duration                         : 28mn 47s
Overall bit rate                 : 1 125 Kbps
Writing application              : transcode-1.1.5

Video
ID                               : 0
Format                           : MPEG-4 Visual
Format profile                   : Advanced Simple@L5
Format settings, BVOP            : 2
Format settings, QPel            : No
Format settings, GMC             : No warppoints
Format settings, Matrix          : Default (H.263)
Codec ID                         : XVID
Codec ID/Hint                    : XviD
Duration                         : 28mn 47s
Bit rate                         : 987 Kbps
Width                            : 624 pixels
Height                           : 352 pixels
Display aspect ratio             : 16:9
Frame rate                       : 25.000 fps
Color space                      : YUV
Chroma subsampling               : 4:2:0
Bit depth                        : 8 bits
Scan type                        : Progressive
Compression mode                 : Lossy
Bits/(Pixel*Frame)               : 0.180
Stream size                      : 203 MiB (88%)
Writing library                  : XviD 1.2.1 (UTC 2008-12-04)

Audio
ID                               : 1
Format                           : MPEG Audio
Format version                   : Version 1
Format profile                   : Layer 3
Mode                             : Joint stereo
Mode extension                   : MS Stereo
Codec ID                         : 55
Codec ID/Hint                    : MP3
Duration                         : 28mn 1s
Bit rate mode                    : Variable
Bit rate                         : 128 Kbps
Channel(s)                       : 2 channels
Sampling rate                    : 48.0 KHz
Compression mode                 : Lossy
Stream size                      : 25.9 MiB (11%)
Alignment                        : Aligned on interleaves
Interleave, duration             : 25 ms (0.62 video frame)


Screens:
 
http://bayimg.com/JajPKAadh 
http://bayimg.com/JAjpMAADh 
http://bayimg.com/jAJPOaADh

